<?xml version="1.0" encoding="UTF-8" standalone="no"?>
<!DOCTYPE svg PUBLIC "-//W3C//DTD SVG 1.1//EN" "http://www.w3.org/Graphics/SVG/1.1/DTD/svg11.dtd">
<svg width="100%" height="100%" viewBox="0 0 85 107" version="1.1" xmlns="http://www.w3.org/2000/svg" xmlns:xlink="http://www.w3.org/1999/xlink" xml:space="preserve" xmlns:serif="http://www.serif.com/" style="fill-rule:evenodd;clip-rule:evenodd;stroke-linejoin:round;stroke-miterlimit:2;">
    <path d="M27.589,91.136C22.756,86.718 21.344,77.433 23.358,70.707C26.85,74.948 31.689,76.291 36.7,77.05C44.437,78.22 52.036,77.782 59.223,74.246C60.045,73.841 60.805,73.303 61.704,72.757C62.378,74.714 62.553,76.689 62.318,78.7C61.745,83.596 59.309,87.378 55.433,90.245C53.883,91.392 52.244,92.417 50.643,93.498C45.726,96.821 44.396,100.718 46.243,106.386C46.287,106.525 46.327,106.663 46.426,107C43.916,105.876 42.082,104.24 40.684,102.089C39.209,99.819 38.507,97.308 38.47,94.591C38.451,93.269 38.451,91.934 38.273,90.631C37.839,87.453 36.347,86.03 33.536,85.948C30.652,85.864 28.37,87.647 27.765,90.455C27.719,90.671 27.652,90.884 27.585,91.134L27.589,91.136Z" style="fill:white;fill-rule:nonzero;"/>
    <path d="M0,69.587C0,69.587 14.314,62.614 28.668,62.614L39.49,29.12C39.895,27.501 41.078,26.4 42.414,26.4C43.749,26.4 44.932,27.501 45.338,29.12L56.16,62.614C73.16,62.614 84.828,69.587 84.828,69.587C84.828,69.587 60.514,3.352 60.467,3.219C59.769,1.261 58.591,0 57.003,0L27.827,0C26.239,0 25.109,1.261 24.363,3.219C24.311,3.35 0,69.587 0,69.587Z" style="fill:white;fill-rule:nonzero;"/>
</svg>
