<?xml version="1.0" encoding="UTF-8" standalone="no"?>
<!DOCTYPE svg PUBLIC "-//W3C//DTD SVG 1.1//EN" "http://www.w3.org/Graphics/SVG/1.1/DTD/svg11.dtd">
<svg width="100%" height="100%" viewBox="0 0 1303 306" version="1.1" xmlns="http://www.w3.org/2000/svg" xmlns:xlink="http://www.w3.org/1999/xlink" xml:space="preserve" xmlns:serif="http://www.serif.com/" style="fill-rule:evenodd;clip-rule:evenodd;stroke-linejoin:round;stroke-miterlimit:2;">
    <defs>
        <style>
            @font-face {
                font-family: "Cal Sans";
                src: url("https://fonts.gstatic.com/s/calsans/v2/fdN99sWUv3gWqXxqqRBTtFsm46ZwWbw.woff2") format("woff2");
            }
        </style>
    </defs>
    <g transform="matrix(1,0,0,1,-1021,-479.366667)">
        <g>
            <rect x="1326.133" y="591" width="122.867" height="89" style="fill:rgb(166,173,200);"/>
            <g transform="matrix(1.105022,0,0,1.105022,-93.966924,-91.548897)">
                <circle cx="1147.067" cy="654.933" r="138.067" style="fill:rgb(166,173,200);"/>
            </g>
            <g transform="matrix(1,0,0,1,258,126)">
                <g transform="matrix(266.666667,0,0,266.666667,2031.466667,589)">
                </g>
                <text x="824px" y="589px" style="font-family:'CalSans-Regular', 'Cal Sans';font-size:266.667px;fill:none;stroke:rgb(166,173,200);stroke-width:75px;">t<tspan x="907.733px 1058.4px 1222.667px 1306.4px 1459.467px 1665.867px " y="589px 589px 589px 589px 589px 589px ">eatowe</tspan>l&apos;<tspan x="1916px " y="589px ">s</tspan></text>
                <g transform="matrix(266.666667,0,0,266.666667,2031.466667,589)">
                </g>
                <text x="824px" y="589px" style="font-family:'CalSans-Regular', 'Cal Sans';font-size:266.667px;fill:rgb(17,17,27);">t<tspan x="907.733px 1058.4px 1222.667px 1306.4px 1459.467px 1665.867px " y="589px 589px 589px 589px 589px 589px ">eatowe</tspan>l&apos;<tspan x="1916px " y="589px ">s</tspan></text>
            </g>
        </g>
    </g>
</svg>
